<?xml version="1.0" standalone="yes"?>
<svg xmlns="http://www.w3.org/2000/svg" width="16" height="38">
<path style="fill:#050504; stroke:none;" d="M0 0L0 4L8 2L8 0L0 0z"/>
<path style="fill:#655b1e; stroke:none;" d="M8 0L8 1L14 1L14 0L8 0z"/>
<path style="fill:#050504; stroke:none;" d="M9.66667 0.333332L10.3333 0.666668L9.66667 0.333332M14 0L15 8L16 8L16 0L14 0z"/>
<path style="fill:#ebcf0a; stroke:none;" d="M8 1L1 5C2.28456 8.86135 4.44599 12.7994 3.92361 17C3.38001 21.3713 -1.09711 26.4004 3 30L2 37L7 38L5 27C14.2872 25.9532 8.21079 17.3522 16 15L13 11L12 11C9.62641 12.9728 8.81792 12.371 7 10L15 8L14 1L8 1z"/>
<path style="fill:#655b1e; stroke:none;" d="M0 6L6 3C2.93937 2.18204 1.53571 3.36029 0 6M7 2L8 3L7 2z"/>
<path style="fill:#050504; stroke:none;" d="M0 6L0 25L1 25C3.63016 18.5335 5.35973 11.5683 0 6z"/>
<path style="fill:#655b1e; stroke:none;" d="M14 6L15 7L14 6M2 8L3 9L2 8z"/>
<path style="fill:#e2e0d8; stroke:none;" d="M7 10C8.51309 12.636 9.93982 13.654 12 11L16 12C14.447 7.36679 10.9105 8.54821 7 10z"/>
<path style="fill:#655b1e; stroke:none;" d="M15 8L16 9L15 8M3 11L4 12L3 11z"/>
<path style="fill:#050504; stroke:none;" d="M15 12L16 13L15 12z"/>
<path style="fill:#655b1e; stroke:none;" d="M3 13L3 16L4 16L3 13M15 13L16 14L15 13z"/>
<path style="fill:#b14009; stroke:none;" d="M11 19L16 18L16 16C12.8628 15.5057 12.0004 15.9641 11 19z"/>
<path style="fill:#655b1e; stroke:none;" d="M15 15L16 16L15 15M4.33333 16.6667L4.66667 17.3333L4.33333 16.6667z"/>
<path style="fill:#050504; stroke:none;" d="M15 18L11 19L15 37L9 37L7 33C8.11938 38.1297 11.2964 37.9833 16 38L15 18z"/>
<path style="fill:#655b1e; stroke:none;" d="M3 19L4 20L3 19M10.3333 19.6667L10.6667 20.3333L10.3333 19.6667M2 21L3 22L2 21M11 21L12 22L11 21M12 22L14 27L15 27L12 22M1 23L2 24L1 23z"/>
<path style="fill:#e2e0d8; stroke:none;" d="M12 24L5 27L7 33C11.2486 31.5199 15.0128 28.4273 12 24z"/>
<path style="fill:#655b1e; stroke:none;" d="M0 25L1 26L0 25z"/>
<path style="fill:#e2e0d8; stroke:none;" d="M0 26L3 31L3 30L0 26z"/>
<path style="fill:#655b1e; stroke:none;" d="M13.3333 28.6667L13.6667 29.3333L13.3333 28.6667M0 30L2 32L0 30z"/>
<path style="fill:#ebcf0a; stroke:none;" d="M9 32L10 37L14 37L14 30L9 32z"/>
<path style="fill:#050504; stroke:none;" d="M0 31L0 38L2 38L0 31z"/>
<path style="fill:#655b1e; stroke:none;" d="M2 33L2 36L3 36L2 33M13 33L14 34L13 33M6.33333 34.6667L6.66667 35.3333L6.33333 34.6667M9 34L9 37L10 37L9 34M14.3333 35.6667L14.6667 36.3333L14.3333 35.6667M7.33333 36.6667L7.66667 37.3333L7.33333 36.6667M2.66667 37.3333L3.33333 37.6667L2.66667 37.3333z"/>
</svg>
