<?xml version="1.0" standalone="yes"?>
<svg xmlns="http://www.w3.org/2000/svg" width="126" height="300">
<path style="fill:#080705; stroke:none;" d="M0 0L0 300L126 300L126 0L0 0z"/>
<path style="fill:#6f7091; stroke:none;" d="M93 3L93 8L94 8L93 3z"/>
<path style="fill:#fdde01; stroke:none;" d="M92 4C83.0885 12.9372 78.8666 20.9128 70 7L68 7L61 25L45 17L43 28L30 23L28 34L14 29L17 39L4 38C8.00164 48.3319 17.2648 56.754 22.1111 67C28.6725 80.8721 29.3809 99.3843 40 110C28.0164 106.019 25.8356 126.599 41 123C36.1187 130.262 38.8911 141.366 35.1242 150C30.4582 160.695 22.3097 169.469 17.3202 180C10.2068 195.015 9.16 218.871 13 235L15 235L18 232C18.8068 235.873 20.0594 237.358 24 238L25 230L35 234L30 221L36 225C34.5304 208.168 28.257 192.864 47 182C44.2562 184.506 41.6074 186.969 39.4429 190.015C37.0181 193.427 31.8051 202.21 35.0316 206.397C37.5959 209.724 47.2216 208.994 51 209C64.557 209.022 88.7132 208.199 94.8951 192.996C98.353 184.492 88.4915 180.57 85.0231 174.791C79.4299 165.472 79.1605 157.956 82 148L78 145L94 149C91.5922 144.572 88.2095 141.381 88.0586 136C87.5006 116.096 107.148 114.762 119 124C123.429 116.094 123.002 105.428 114 101L103 106L103 104C108.03 103.878 119.022 98.2961 110.721 93.0278C107.329 90.8755 100.973 91.7376 97 91C94.0363 99.6868 87.7542 107.712 78 108.811C64.1785 110.368 51.4981 95.2615 56.1088 82C59.2482 72.9701 69.2746 65.7194 79 67.4722C82.5484 68.1118 86.4339 71.3849 90 70.9823C94.2877 70.4981 97.7392 65.8693 102 64.6381C104.887 63.8038 114.326 65.91 115.824 63.3573C117.662 60.2253 108.951 51.4449 107.761 48C103.404 35.3886 104.109 19.2198 104 6L94 12L92 4z"/>
<path style="fill:#6f7091; stroke:none;" d="M90 5L91 6L90 5M69 6L70 7L69 6M89 6L90 7L89 6M101 6L102 7L101 6M70 7L71 8L70 7M88 7L89 8L88 7M99 7L100 8L99 7M67 8L68 9L67 8M87 8L88 9L87 8M98 8L99 9L98 8M71 9L72 10L71 9M86 9L87 10L86 9M97 9L98 10L97 9M104 9L104 14L105 14L104 9M66 10L67 11L66 10M85 10L86 11L85 10M94.3333 10.6667L94.6667 11.3333L94.3333 10.6667M96 10L97 11L96 10M72 11L73 12L72 11M84 11L85 12L84 11M65 12L66 13L65 12M73 12L74 13L73 12M74 13L75 14L74 13M83 13L84 14L83 13M64 14L65 15L64 14M75 14L76 15L75 14M82.3333 14.6667L82.6667 15.3333L82.3333 14.6667M63 16L64 17L63 16M78 16L79 17L78 16M48.6667 17.3333L49.3333 17.6667L48.6667 17.3333M51 18L52 19L51 18M53 19L54 20L53 19M62 19L63 20L62 19M56 21L57 22L56 21M30.6667 22.3333L31.3333 22.6667L30.6667 22.3333M44.3333 22.6667L44.6667 23.3333L44.3333 22.6667M57 22L58 23L57 22M61.3333 22.6667L61.6667 23.3333L61.3333 22.6667M34 23L35 24L34 23M58 23L59 24L58 23M36 24L37 25L36 24M59 24L60 25L59 24M37 25L38 26L37 25M43 25L44 26L43 25M39 26L40 27L39 26M40 27L41 28L40 27M42 27L43 28L42 27M13 29L14 30L13 29M17.6667 29.3333L18.3333 29.6667L17.6667 29.3333M29.3333 29.6667L29.6667 30.3333L29.3333 29.6667M105 29L105 38L106 38L105 29M20.6667 30.3333L21.3333 30.6667L20.6667 30.3333M14 31L15 32L14 31M23 31L24 32L23 31M24 32L25 33L24 32M28 32L29 33L28 32M15.3333 33.6667L15.6667 34.3333L15.3333 33.6667M26.6667 33.3333L27.3333 33.6667L26.6667 33.3333M16.3333 37.6667L16.6667 38.3333L16.3333 37.6667M3.33333 38.6667L3.66667 39.3333L3.33333 38.6667M9 38L9 39L14 39L9 38M4 40L5 41L4 40M5 41L6 42L5 41M106 41L106 44L107 44L106 41M6 45L7 46L6 45M8 45L9 46L8 45M9 46L10 47L9 46M107.333 46.6667L107.667 47.3333L107.333 46.6667M10 47L11 48L10 47M11 49L12 50L11 49M108.333 49.6667L108.667 50.3333L108.333 49.6667M12 50L13 51L12 50M13 52L14 53L13 52M109 52L110 53L109 52M14 53L15 54L14 53M15 55L16 56L15 55M111 55L112 56L111 55M16 56L17 57L16 56M17 58L18 59L17 58M18 60L19 61L18 60M117 62L118 63L117 62M20 63L21 64L20 63M101 64L101 65L106 66L106 65L101 64z"/>
<path style="fill:#080705; stroke:none;" d="M103 64L103 65L110 65L103 64z"/>
<path style="fill:#6f7091; stroke:none;" d="M108 65L108 66L113 65L108 65M116 64L117 65L116 64M21 65L22 66L21 65M99 65L99 67L101 67L99 65z"/>
<path style="fill:#080705; stroke:none;" d="M100.667 65.3333L101.333 65.6667L100.667 65.3333z"/>
<path style="fill:#f9f9f9; stroke:none;" d="M115 96C118.177 94.71 120.37 93.0452 122.08 89.9599C123.467 87.4572 123.935 84.8314 123.981 82C124.327 60.6192 87.3994 61.1288 95.0494 80C96.0371 82.4365 96.3136 85.5611 97.9375 87.6821C102.246 93.3089 110.698 88.2637 115 96z"/>
<path style="fill:#080705; stroke:none;" d="M95 69L99 67L95 69z"/>
<path style="fill:#6f7091; stroke:none;" d="M113.667 66.3333L114.333 66.6667L113.667 66.3333M22.3333 67.6667L22.6667 68.3333L22.3333 67.6667M72 67L72 68L80 68L72 67M95 67L96 68L95 67M97 67L98 68L97 67M116 67L117 68L116 67M68 68L71 70L68 68z"/>
<path style="fill:#080705; stroke:none;" d="M70 68L70 69L73 69L70 68M79 68L79 69L82 69L79 68z"/>
<path style="fill:#6f7091; stroke:none;" d="M82 68L82 70L84 68L82 68M94 68L93 71L94 68M117 68L118 69L117 68M66 69L68 71L66 69z"/>
<path style="fill:#080705; stroke:none;" d="M67.6667 69.3333L68.3333 69.6667L67.6667 69.3333z"/>
<path style="fill:#f9f9f9; stroke:none;" d="M71 69.5293C46.6492 75.1583 56.5572 111.934 81 106.61C105.462 101.28 95.3981 63.8894 71 69.5293z"/>
<path style="fill:#080705; stroke:none;" d="M83 69L83 70C88.8411 73.0305 93.1143 77.6511 95 84L96 84L93 70L92 70L91 73L83 69z"/>
<path style="fill:#6f7091; stroke:none;" d="M85 69L86 70L85 69z"/>
<path style="fill:#080705; stroke:none;" d="M93 69L94 70L93 69z"/>
<path style="fill:#6f7091; stroke:none;" d="M23 70L24 71L23 70z"/>
<path style="fill:#080705; stroke:none;" d="M60 75L67 71L60 75z"/>
<path style="fill:#6f7091; stroke:none;" d="M84 70L85 71L84 70M120 70L121 71L120 70M63 71L64 72L63 71M65 71L66 72L65 71M86 71L87 72L86 71M88 71L89 72L88 71M91 71L92 72L91 71M24 72L25 73L24 72M89.6667 72.3333L90.3333 72.6667L89.6667 72.3333M62 73L63 74L62 73M91 73L92 74L91 73M122 73L123 74L122 73M25.3333 74.6667L25.6667 75.3333L25.3333 74.6667M61 74L62 75L61 74M58 77L61 76L58 77M92 75L93 76L92 75M123 75L124 76L123 75z"/>
<path style="fill:#080705; stroke:none;" d="M59 76L60 77L59 76z"/>
<path style="fill:#6f7091; stroke:none;" d="M93 76L94 77L93 76M26 77L27 78L26 77z"/>
<path style="fill:#080705; stroke:none;" d="M58 77L59 78L58 77z"/>
<path style="fill:#6f7091; stroke:none;" d="M92 77L93 78L92 77M109 77L110 78L109 77M124 77L124 85L125 85L124 77M57.6667 78.3333L58.3333 78.6667L57.6667 78.3333M94 78L95 79L94 78z"/>
<path style="fill:#080705; stroke:none;" d="M108 78L109 83L111 83C111.494 79.8628 111.036 79.0004 108 78z"/>
<path style="fill:#6f7091; stroke:none;" d="M111 78L112 79L111 78z"/>
<path style="fill:#080705; stroke:none;" d="M57 79L58 80L57 79z"/>
<path style="fill:#6f7091; stroke:none;" d="M93 79L94 80L93 79M107 79L107 82L108 82L107 79M112.333 79.6667L112.667 80.3333L112.333 79.6667M27 80L28 81L27 80M56 80L58 82L58 80L56 80M95 80L96 81L95 80z"/>
<path style="fill:#080705; stroke:none;" d="M56 81L56 84L57 84L56 81z"/>
<path style="fill:#6f7091; stroke:none;" d="M94 81L95 82L94 81M28.3333 82.6667L28.6667 83.3333L28.3333 82.6667M108 82L109 83L108 82M111 82L112 83L111 82M55 83L55 93L56 93L55 83M71 84L71 85L74 86L71 84M95 84L95 88L96 88L97 84L95 84z"/>
<path style="fill:#080705; stroke:none;" d="M55 85L55 91L56 91L55 85M70 85L70 89L74 88L74 86L70 85z"/>
<path style="fill:#6f7091; stroke:none;" d="M29 86L30 87L29 86M69 86L69 89L70 89L69 86z"/>
<path style="fill:#080705; stroke:none;" d="M96 86L96 91L100 91L100 90L96 86z"/>
<path style="fill:#6f7091; stroke:none;" d="M123 87L124 88L123 87M125 87L126 88L125 87M73 88L74 89L73 88M97 88L98 89L97 88M30.3333 89.6667L30.6667 90.3333L30.3333 89.6667M70 89L70 90L73 90L70 89M95 89L96 93L97 93L95 89M98 89L99 90L98 89M122 89L123 90L122 89M97 90L98 91L97 90M99 91L99 92L110 91L99 91z"/>
<path style="fill:#080705; stroke:none;" d="M101 91L101 92L113 95C113.126 89.6676 104.734 91 101 91z"/>
<path style="fill:#6f7091; stroke:none;" d="M112 91L113 92L112 91M121 91L122 92L121 91z"/>
<path style="fill:#080705; stroke:none;" d="M56 92L57 97L58 97L56 92M95 92L95 95L96 95L95 92z"/>
<path style="fill:#6f7091; stroke:none;" d="M111 92L112 93L111 92M113 92L114 93L113 92M120 92L121 93L120 92M31.3333 93.6667L31.6667 94.3333L31.3333 93.6667M112 93L113 94L112 93M57 94L58 95L57 94M94 94L94 96L96 96L94 94M114 94L113 97L114 94M118 94L119 95L118 94M56 95L57 96L56 95M117 95L118 96L117 95z"/>
<path style="fill:#080705; stroke:none;" d="M94 96L95 97L94 96z"/>
<path style="fill:#6f7091; stroke:none;" d="M115 96L116 97L115 96M32.3333 97.6667L32.6667 98.3333L32.3333 97.6667M57 97L57 98L58 100L59 100L57 97M93 100L94 100L95 98L93 100z"/>
<path style="fill:#080705; stroke:none;" d="M58 98L59 99L58 98M93 98L94 99L93 98M59 99L66 106L66 105L59 99M92 99L80 107L80 108C84.6725 107.167 92.1196 104.583 92 99z"/>
<path style="fill:#6f7091; stroke:none;" d="M113 99L112 104L113 104L116 101L113 99M60 100L61 101L60 100M61 101L62 102L61 101M90 101L91 102L90 101z"/>
<path style="fill:#080705; stroke:none;" d="M113 101L114 102L113 101z"/>
<path style="fill:#6f7091; stroke:none;" d="M116 101L117 102L116 101M33 102L33 105L34 105L33 102M62 102L63 103L62 102M89 102L90 103L89 102z"/>
<path style="fill:#080705; stroke:none;" d="M112 102L113 103L112 102z"/>
<path style="fill:#6f7091; stroke:none;" d="M117 102L118 103L117 102M63 103L64 104L63 103M109 103L111 105L109 103z"/>
<path style="fill:#080705; stroke:none;" d="M110.667 103.333L111.333 103.667L110.667 103.333z"/>
<path style="fill:#6f7091; stroke:none;" d="M118 103L119 104L118 103M86 104L87 105L86 104M103 104L108 106L103 104z"/>
<path style="fill:#080705; stroke:none;" d="M106 104L106 105L110 105L106 104z"/>
<path style="fill:#6f7091; stroke:none;" d="M64 105L65 106L64 105M66.3333 105.667L66.6667 106.333L66.3333 105.667M84 105L85 106L84 105M87 105L88 106L87 105M119 105L120 106L119 105M34 106L35 107L34 106z"/>
<path style="fill:#080705; stroke:none;" d="M67 106L68 107L67 106z"/>
<path style="fill:#6f7091; stroke:none;" d="M68 106L68 108L70 106L68 106M82 106L83 107L82 106M85 106L86 107L85 106M37 107L36 109L37 107z"/>
<path style="fill:#080705; stroke:none;" d="M69 107L69 108L72 108L69 107z"/>
<path style="fill:#6f7091; stroke:none;" d="M71 108L71 109L81 109L71 108M83 107L84 108L83 107M120 107L121 108L120 107M33 108L34 109L33 108z"/>
<path style="fill:#080705; stroke:none;" d="M37.6667 108.333L38.3333 108.667L37.6667 108.333z"/>
<path style="fill:#6f7091; stroke:none;" d="M39 108L38 110L40 110L39 108z"/>
<path style="fill:#080705; stroke:none;" d="M74 108L74 109L78 109L74 108z"/>
<path style="fill:#6f7091; stroke:none;" d="M32 109L33 110L32 109M121 109L122 110L121 109M31 110L32 111L31 110M30 112L31 113L30 112M36 113L36 114L39 114L36 113M122 113L122 117L123 117L122 113M33 115L33 116L36 116L33 115z"/>
<path style="fill:#080705; stroke:none;" d="M35 114L35 115L40 115L35 114z"/>
<path style="fill:#6f7091; stroke:none;" d="M40 114L41 115L40 114z"/>
<path style="fill:#080705; stroke:none;" d="M34 115L35 116L34 115z"/>
<path style="fill:#6f7091; stroke:none;" d="M29.3333 116.667L29.6667 117.333L29.3333 116.667z"/>
<path style="fill:#080705; stroke:none;" d="M33 116L34 117L33 116z"/>
<path style="fill:#6f7091; stroke:none;" d="M105.667 116.333L106.333 116.667L105.667 116.333M100.667 117.333L101.333 117.667L100.667 117.333z"/>
<path style="fill:#080705; stroke:none;" d="M91 127L92 127C97.5586 119.876 103.256 117.919 112 119C104.478 113.861 94.064 119.26 91 127z"/>
<path style="fill:#6f7091; stroke:none;" d="M110 117L111 118L110 117M98 118L99 119L98 118z"/>
<path style="fill:#e71204; stroke:none;" d="M113 124C113.166 113.635 97.4776 119.322 93.5579 124.105C80.8549 139.605 101.549 156.483 115.786 145.297C122.521 140.006 121.472 126.508 113 124z"/>
<path style="fill:#6f7091; stroke:none;" d="M112 118L113 119L112 118M96 119L97 120L96 119M114 119L115 120L114 119M121 119L122 120L121 119M95 120L96 121L95 120M115 120L116 121L115 120M30 121L31 122L30 121M120 121L121 122L120 121M39 123L41 125L41 123L39 123M92 123L93 124L92 123z"/>
<path style="fill:#080705; stroke:none;" d="M101 147L101 146C99.5292 144.537 97.0912 141.803 99.6227 139.826C103.051 137.15 107.723 143.131 111.392 138.681C116.04 133.045 104.567 128.082 112 124C101.821 121.922 112.535 134.558 110.199 137.664C109.314 138.842 86.7559 139.144 101 147z"/>
<path style="fill:#6f7091; stroke:none;" d="M117 123L118 124L117 123M119 123L120 124L119 123M33 124L33 125L39 126L33 124z"/>
<path style="fill:#080705; stroke:none;" d="M38.6667 124.333L39.3333 124.667L38.6667 124.333z"/>
<path style="fill:#6f7091; stroke:none;" d="M91 124L92 125L91 124M90 126L91 127L90 126M89 128L90 129L89 128M38 130L38 140L39 140L38 130M88.3333 130.667L88.6667 131.333L88.3333 130.667M88.3333 139.667L88.6667 140.333L88.3333 139.667M37.3333 142.667L37.6667 143.333L37.3333 142.667M89 142L90 143L89 142M90 144L91 145L90 144M78.6667 145.333L79.3333 145.667L78.6667 145.333M91 145L92 146L91 145M36 146L37 147L36 146z"/>
<path style="fill:#080705; stroke:none;" d="M79.6667 146.333L80.3333 146.667L79.6667 146.333z"/>
<path style="fill:#6f7091; stroke:none;" d="M81 146L82 147L81 146M92 146L93 147L92 146M80 147L81 148L80 147M83 147L84 148L83 147M86.6667 148.333L87.3333 148.667L86.6667 148.333M94 148L95 149L94 148M35 149L36 150L35 149M81 150L82 151L81 150M34 151L35 152L34 151M80 152L81 153L80 152M33 153L34 154L33 153M79 154L79 157L80 157L79 154M32 155L33 156L32 155M31 156L32 157L31 156M30 158L31 159L30 158M79 159L79 162L80 162L79 159M29 160L30 161L29 160M28 161L29 162L28 161M27 163L28 164L27 163M26 164L27 165L26 164M80 164L81 165L80 164M25 166L26 167L25 166M81 166L82 167L81 166M24 167L25 168L24 167M82 167L83 168L82 167M23 169L24 170L23 169M22 170L23 171L22 170M84 171L84 176L85 176L84 171M86 171L87 172L86 171M21 172L22 173L21 172z"/>
<path style="fill:#fdde01; stroke:none;" d="M86 172L96 186L97 186C94.601 180.268 91.7871 174.757 86 172z"/>
<path style="fill:#6f7091; stroke:none;" d="M89 173L90 174L89 173M20 174L21 175L20 174M90 174L91 175L90 174M19 175L20 176L19 175M78 175L81 178L81 177L78 175z"/>
<path style="fill:#080705; stroke:none;" d="M79 175L82 177L79 175z"/>
<path style="fill:#6f7091; stroke:none;" d="M81 175L82 176L81 175M86 175L85 177L86 175z"/>
<path style="fill:#080705; stroke:none;" d="M86 176L86 177L94 185L95 185C93.2111 180.421 90.5788 177.789 86 176z"/>
<path style="fill:#6f7091; stroke:none;" d="M18 177L19 178L18 177M87 177L88 178L87 177M89 177L90 178L89 177M92 177L93 178L92 177M62 178L61 181L61 182L62 178M93 178L94 179L93 178M17 179L18 180L17 179z"/>
<path style="fill:#080705; stroke:none;" d="M61 179L61 181L63 181L63 179L61 179z"/>
<path style="fill:#6f7091; stroke:none;" d="M94 180L95 181L94 180M16 181L17 182L16 181M93 181L94 182L93 181M44 185L47 182L44 185M92 182L93 183L92 182M95 182L96 183L95 182M15.3333 183.667L15.6667 184.333L15.3333 183.667M93 183L94 184L93 183M42 184L39 188L40 189L41 189L42 188L42 184z"/>
<path style="fill:#080705; stroke:none;" d="M43 184L44 185L43 184z"/>
<path style="fill:#6f7091; stroke:none;" d="M96 184L97 185L96 184z"/>
<path style="fill:#080705; stroke:none;" d="M42 185L43 186L42 185z"/>
<path style="fill:#6f7091; stroke:none;" d="M94 185L94 186L98 188L94 185M14 186L15 187L14 186z"/>
<path style="fill:#080705; stroke:none;" d="M41 186L42 187L41 186M95 186L96 187L95 186M40 187L41 188L40 187M39 188L36 194L37 194L39 188z"/>
<path style="fill:#6f7091; stroke:none;" d="M13.3333 189.667L13.6667 190.333L13.3333 189.667M97 190L97 191L103 194L99 189L97 190M37 190L38 191L37 190z"/>
<path style="fill:#f9f9f9; stroke:none;" d="M98 190C85.2107 213.98 56.9055 210.808 34 209C34.5464 215.259 39.1688 221.919 34 227C40.4829 234.098 54.0969 236.426 57.1535 247C58.0499 250.101 56.3126 253.857 56 257C70.8691 256.998 85.679 251.643 95.5316 239.961C100.562 233.997 102.666 220.583 96.3472 214.373C93.3468 211.424 89.413 215.064 86 213L93 210C85.8566 208.364 81.6166 211.595 78.3773 218C72.2054 230.204 70.2375 242.911 60 253C63.298 246.429 62.7967 240.945 61 234L62 234L65 244C77.1854 233.553 72.6214 204.571 95 209L94 205L97 206L102 228C109.757 217.588 108.602 197.878 98 190z"/>
<path style="fill:#6f7091; stroke:none;" d="M38 191L39 192L38 191M36 192L37 193L36 192M95 192L93 195L88 200L88 201C91.6122 200.079 93.3775 198.691 94 195C96.1579 194.022 96.5007 193.812 95 192M12 193L12 196L13 196L12 193z"/>
<path style="fill:#080705; stroke:none;" d="M95 193L96 194L95 193z"/>
<path style="fill:#6f7091; stroke:none;" d="M35.6667 194.333L36.3333 194.667L35.6667 194.333z"/>
<path style="fill:#080705; stroke:none;" d="M35 195L34 199L35 199L35 195M94 195L95 196L94 195z"/>
<path style="fill:#6f7091; stroke:none;" d="M103 195L104 196L103 195M34 196L35 197L34 196z"/>
<path style="fill:#080705; stroke:none;" d="M93 196L94 197L93 196z"/>
<path style="fill:#6f7091; stroke:none;" d="M35 197L36 198L35 197z"/>
<path style="fill:#080705; stroke:none;" d="M92 197L93 198L92 197z"/>
<path style="fill:#6f7091; stroke:none;" d="M104 197L105 198L104 197z"/>
<path style="fill:#080705; stroke:none;" d="M91 198L92 199L91 198z"/>
<path style="fill:#6f7091; stroke:none;" d="M33 199L33 201L35 201L35 199L33 199z"/>
<path style="fill:#080705; stroke:none;" d="M90 199L91 200L90 199z"/>
<path style="fill:#6f7091; stroke:none;" d="M105.333 199.667L105.667 200.333L105.333 199.667M11 200L10 203L7 202L7 203L10 203L10 230L11 230C12.7646 223.016 13.8321 206.749 11 200z"/>
<path style="fill:#080705; stroke:none;" d="M89 200L90 201L89 200M33 201L33 204L34 204L33 201M73 207L73 208L89 202L73 207z"/>
<path style="fill:#f9f9f9; stroke:none;" d="M4 202L5 203L4 202z"/>
<path style="fill:#6f7091; stroke:none;" d="M85 202L86 203L85 202M87 202L88 203L87 202z"/>
<path style="fill:#f9f9f9; stroke:none;" d="M6 203C4.47366 221.292 -2.34362 238.529 20 247C20.6607 237.155 13.8615 239.296 11.1481 231.966C8.02824 223.538 10 211.867 10 203L6 203z"/>
<path style="fill:#6f7091; stroke:none;" d="M32 203L32 212L33 212L32 203M83 203L84 204L83 203M86 203L87 204L86 203M106 203L106 206L107 206L108 203L106 203z"/>
<path style="fill:#fdde01; stroke:none;" d="M108 203C108.105 207.31 108.343 210.191 113 211C112.689 206.898 111.6 205.019 108 203z"/>
<path style="fill:#6f7091; stroke:none;" d="M109 203L110 204L109 203M5 204L5 207L6 207L5 204M81 204L82 205L81 204M84 204L85 205L84 204M111 204L112 205L111 204M78 205L79 206L78 205M82 205L83 206L82 205M94 205C94.572 209.073 94.028 211.951 98 214L98 213L95 212C96.2326 208.88 96.9185 207.016 94 205M112 205L113 206L112 205z"/>
<path style="fill:#080705; stroke:none;" d="M33 206C33.6544 209.054 35.0066 208.936 38 209L38 208L33 206z"/>
<path style="fill:#6f7091; stroke:none;" d="M75 206L76 207L75 206M79.6667 206.333L80.3333 206.667L79.6667 206.333M34 207L35 208L34 207M71 207L74 209L71 207M76.6667 207.333L77.3333 207.667L76.6667 207.333M87 207L90 209L87 207M113 207L113 211L114 211L113 207M5 208L5 215L6 215L5 208M38 208L38 210L45 210L38 208M64 208L64 209L70 210L70 209L64 208z"/>
<path style="fill:#080705; stroke:none;" d="M67 208L67 209L72 209L67 208z"/>
<path style="fill:#6f7091; stroke:none;" d="M84 208L86 210L84 208z"/>
<path style="fill:#080705; stroke:none;" d="M85 208L85 209L88 209L85 208M90 208L91 209L90 208z"/>
<path style="fill:#6f7091; stroke:none;" d="M91 208L91 210L93 208L91 208z"/>
<path style="fill:#080705; stroke:none;" d="M45 209L45 210L66 210L45 209M81 212L85 210L81 212M92 209L94 212L92 209z"/>
<path style="fill:#6f7091; stroke:none;" d="M108 209L109 210L108 209z"/>
<path style="fill:#080705; stroke:none;" d="M33 210L36 225L37 225L33 210z"/>
<path style="fill:#6f7091; stroke:none;" d="M51 210L51 211L59 211L51 210M83 210L84 211L83 210M82 211L83 212L82 211M92 211L88 215L92 211z"/>
<path style="fill:#080705; stroke:none;" d="M95 211L96 212L95 211z"/>
<path style="fill:#6f7091; stroke:none;" d="M111 211L112 212L111 211M80 212L78 215L78 216L82 213L80 212z"/>
<path style="fill:#080705; stroke:none;" d="M96 212L97 213L96 212z"/>
<path style="fill:#fdde01; stroke:none;" d="M108 212L108 214L110 214L110 212L108 212z"/>
<path style="fill:#6f7091; stroke:none;" d="M34 213L35 214L34 213z"/>
<path style="fill:#080705; stroke:none;" d="M80 213L81 214L80 213z"/>
<path style="fill:#6f7091; stroke:none;" d="M86.3333 213.667L86.6667 214.333L86.3333 213.667M106 213L106 216L107 216L106 213M110 213L111 214L110 213M33 214L34 215L33 214z"/>
<path style="fill:#080705; stroke:none;" d="M79 214L80 215L79 214M87 214L88 215L87 214M97 214L98 217L99 217L97 214z"/>
<path style="fill:#6f7091; stroke:none;" d="M108.667 214.333L109.333 214.667L108.667 214.333z"/>
<path style="fill:#080705; stroke:none;" d="M11 215L11 225L12 225L11 215z"/>
<path style="fill:#6f7091; stroke:none;" d="M97 215L98 216L97 215M35 216L36 217L35 216z"/>
<path style="fill:#080705; stroke:none;" d="M78 216L79 217L78 216z"/>
<path style="fill:#6f7091; stroke:none;" d="M99 216L98 218L100 218L99 216M107 216L107 218L109 218L107 216z"/>
<path style="fill:#fdde01; stroke:none;" d="M108 216L109 217L108 216z"/>
<path style="fill:#6f7091; stroke:none;" d="M4.33333 217.667L4.66667 218.333L4.33333 217.667M34 217L35 218L34 217M77.6667 217.333L78.3333 217.667L77.6667 217.333M2 218L3 219L2 218z"/>
<path style="fill:#080705; stroke:none;" d="M77 218L78 219L77 218M99.3333 218.667L99.6667 219.333L99.3333 218.667z"/>
<path style="fill:#6f7091; stroke:none;" d="M36 219L37 220L36 219M76.6667 219.333L77.3333 219.667L76.6667 219.333M105.333 219.667L105.667 220.333L105.333 219.667M3.33333 220.667L3.66667 221.333L3.33333 220.667M35 220L36 221L35 220z"/>
<path style="fill:#080705; stroke:none;" d="M76 220L75 224L76 224L76 220z"/>
<path style="fill:#6f7091; stroke:none;" d="M99 220L99 223L101 223L101 220L99 220M30 221L31 222L30 221M75 221L76 222L75 221z"/>
<path style="fill:#080705; stroke:none;" d="M30 222L32 227L35 226L35 225L30 222z"/>
<path style="fill:#6f7091; stroke:none;" d="M76 222L77 223L76 222M2.33333 223.667L2.66667 224.333L2.33333 223.667M30 223L31 224L30 223M32 223L33 224L32 223z"/>
<path style="fill:#080705; stroke:none;" d="M100 223L100 229L101 229L100 223z"/>
<path style="fill:#6f7091; stroke:none;" d="M104 223L105 224L104 223M33 224L34 225L33 224M74 224L76 226L76 224L74 224M31 225L32 226L31 225M32 227L34 231L35 231L36 230L34 227L37 226L32 227z"/>
<path style="fill:#080705; stroke:none;" d="M74.3333 225.667L74.6667 226.333L74.3333 225.667z"/>
<path style="fill:#6f7091; stroke:none;" d="M103 226L104 227L103 226M73 227L75 229L75 227L73 227M101 227L101 229L103 229L101 227z"/>
<path style="fill:#080705; stroke:none;" d="M33 228L34 229L33 228M73.3333 228.667L73.6667 229.333L73.3333 228.667z"/>
<path style="fill:#6f7091; stroke:none;" d="M2 229L2 232L3 232L2 229z"/>
<path style="fill:#080705; stroke:none;" d="M11 229L21 242L22 242L25 237C20.9639 237.586 19.5061 236.091 17 233C13.2851 234.372 12.6143 232.004 11 229M34 229L35 230L34 229z"/>
<path style="fill:#6f7091; stroke:none;" d="M100 229L100 232L101 232L100 229M25 230L26 234L29 234L25 230z"/>
<path style="fill:#080705; stroke:none;" d="M35 230C33.606 234.548 31.1502 234.383 27 233L27 234C32.1204 236.405 34.8838 235.218 37 230L35 230z"/>
<path style="fill:#6f7091; stroke:none;" d="M36 233L39 230L36 233M72 230L74 232L74 230L72 230z"/>
<path style="fill:#080705; stroke:none;" d="M25 231L25 236L26 236L25 231M38 231L38 232C45.3556 235.174 51.3992 240.469 56 247L57 247C53.964 239.169 45.9263 233.332 38 231z"/>
<path style="fill:#6f7091; stroke:none;" d="M40 231L41 232L40 231z"/>
<path style="fill:#080705; stroke:none;" d="M72.3333 231.667L72.6667 232.333L72.3333 231.667z"/>
<path style="fill:#fdde01; stroke:none;" d="M102 231C98.6307 238.709 92.8041 244.832 86 249.699C83.0233 251.828 78.0206 253.196 76.0316 256.39C73.4557 260.527 76.9789 266.738 77.6752 271C78.4539 275.766 76.5059 282.481 79.179 286.721C82.4637 291.931 102.042 291.876 108 292L114 284C111.247 279.238 102.568 279.716 101.207 274.37C97.7429 260.762 113.894 244.615 102 231z"/>
<path style="fill:#6f7091; stroke:none;" d="M103 231L104 232L103 231M16 232L18 234L18 232L16 232z"/>
<path style="fill:#fdde01; stroke:none;" d="M37 232C33.3653 236.018 30.9042 235.513 26 234C24.7738 238.559 21.7237 242.173 21.1744 247C20.1449 256.045 23.3122 264.972 22.9599 274C22.7743 278.754 19.86 285.312 21.7569 289.856C23.9753 295.169 45.0821 300.483 49 296L52 297L52 293L55 294L59 291C55.9978 284.976 48.6804 283.632 48.1196 276C46.916 259.622 65.0116 249.293 46 236.221C43.167 234.273 40.2824 232.948 37 232z"/>
<path style="fill:#6f7091; stroke:none;" d="M39 232L40 233L39 232M42 232L43 233L42 232M3 233L4 234L3 233M12 233L13 234L12 233M41 233L42 234L41 233M44 233L45 234L44 233M71 233L73 235L73 233L71 233M104.333 233.667L104.667 234.333L104.333 233.667M4 234L5 235L4 234M11 234L12 235L11 234M15 234L16 235L15 234M30 234L31 235L30 234M33 234L34 235L33 234M35 234L36 235L35 234M43 234L44 235L43 234M45 234L46 235L45 234M61 234L61 236L63 236L61 234z"/>
<path style="fill:#080705; stroke:none;" d="M71.3333 234.667L71.6667 235.333L71.3333 234.667z"/>
<path style="fill:#6f7091; stroke:none;" d="M99.6667 234.333L100.333 234.667L99.6667 234.333M16 235L17 236L16 235M18 235L19 236L18 235M24 235L26 238L24 235M29 235L30 236L29 235M34 235L35 236L34 235z"/>
<path style="fill:#080705; stroke:none;" d="M99 235L98 237L99 235z"/>
<path style="fill:#6f7091; stroke:none;" d="M3 236L4 237L3 236M5 236L6 237L5 236M13.6667 236.333L14.3333 236.667L13.6667 236.333M17 236L18 237L17 236M46 236L47 237L46 236M48 236L49 237L48 236z"/>
<path style="fill:#080705; stroke:none;" d="M62 236C63.1954 242.439 62.7819 247.039 60 253L69 241L68 241L64 245L62 236z"/>
<path style="fill:#6f7091; stroke:none;" d="M70.6667 236.333L71.3333 236.667L70.6667 236.333M99 236L100 237L99 236M6 237L7 238L6 237M18 237L19 238L18 237M47 237L48 238L47 237M49 237L50 238L49 237M63 237L64 238L63 237z"/>
<path style="fill:#080705; stroke:none;" d="M70 237L71 238L70 237z"/>
<path style="fill:#6f7091; stroke:none;" d="M96 239L99 238L96 239M105.333 237.667L105.667 238.333L105.333 237.667M7 238L8 239L7 238M19 238L20 239L19 238M21.6667 238.333L22.3333 238.667L21.6667 238.333M62 238L62 241L63 241L62 238M69.6667 238.333L70.3333 238.667L69.6667 238.333z"/>
<path style="fill:#080705; stroke:none;" d="M97 238L98 239L97 238z"/>
<path style="fill:#6f7091; stroke:none;" d="M8 239L9 240L8 239M20 239L21 240L20 239M23 239L24 240L23 239z"/>
<path style="fill:#080705; stroke:none;" d="M69 239L70 240L69 239M96 239L82 251L82 252C87.2143 249.519 94.5754 244.877 96 239z"/>
<path style="fill:#6f7091; stroke:none;" d="M9 240L10 241L9 240M22 240L23 241L22 240M68.6667 240.333L69.3333 240.667L68.6667 240.333M96 240L97 241L96 240M10 241L11 242L10 241M64 241L64 245L65 245L64 241M95 241L96 242L95 241M20 242L22 245L22 242L20 242M68 242L69 243L68 242M94 242L95 243L94 242M10 243L11 244L10 243M13 243L14 244L13 243M55 243L56 244L55 243M66 243L67 244L66 243M93 243L94 244L93 243M106 243L106 249L107 249L106 243M14 244L15 245L14 244M56 244L57 245L56 244M90 244L91 245L90 244M92 244L93 245L92 244M16 245L17 246L16 245M55 245L56 246L55 245M65 245L66 246L65 245M89 245L90 246L89 245M91 245L92 246L91 245M17 246L18 247L17 246M57 246L55 252L56 253L57 246M62.3333 246.667L62.6667 247.333L62.3333 246.667M64 246L65 247L64 246M88 246L89 247L88 246M90 246L91 247L90 246M19 247L20 248L19 247z"/>
<path style="fill:#f9f9f9; stroke:none;" d="M17 248L18 249L17 248z"/>
<path style="fill:#080705; stroke:none;" d="M57.3333 248.667L57.6667 249.333L57.3333 248.667z"/>
<path style="fill:#6f7091; stroke:none;" d="M63 248L64 249L63 248M85 248L86 249L85 248M84 249L85 250L84 249M86 249L87 250L86 249z"/>
<path style="fill:#080705; stroke:none;" d="M56 250L57 251L56 250z"/>
<path style="fill:#6f7091; stroke:none;" d="M61 250L62 251L61 250M82 250L83 251L82 250M85 250L86 251L85 250M81.3333 251.667L81.6667 252.333L81.3333 251.667M83 251L84 252L83 251z"/>
<path style="fill:#080705; stroke:none;" d="M55 252L55 255L56 255L55 252z"/>
<path style="fill:#6f7091; stroke:none;" d="M61 252L62 253L61 252M78 252L80 254L80 252L78 252z"/>
<path style="fill:#080705; stroke:none;" d="M80 252L81 253L80 252z"/>
<path style="fill:#6f7091; stroke:none;" d="M54 253L55 257L56 257L54 253M76 253L78 255L76 253z"/>
<path style="fill:#080705; stroke:none;" d="M77.6667 253.333L78.3333 253.667L77.6667 253.333z"/>
<path style="fill:#6f7091; stroke:none;" d="M105 253L105 256L106 256L105 253M73 254L73 255L76 256L73 254z"/>
<path style="fill:#080705; stroke:none;" d="M75.6667 254.333L76.3333 254.667L75.6667 254.333z"/>
<path style="fill:#6f7091; stroke:none;" d="M70.6667 255.333L71.3333 255.667L70.6667 255.333M66.6667 256.333L67.3333 256.667L66.6667 256.333M74 256L74 259L75 259L74 256M21 257L21 262L22 262L21 257M59 257L59 258L62 258L59 257M53.3333 259.667L53.6667 260.333L53.3333 259.667M104.333 259.667L104.667 260.333L104.333 259.667M52 262L53 263L52 262M75.3333 262.667L75.6667 263.333L75.3333 262.667M103.333 263.667L103.667 264.333L103.333 263.667M51 264L52 265L51 264M22 266L22 279L23 279L22 266M50 266L51 267L50 266M76.3333 266.667L76.6667 267.333L76.3333 266.667M49 267L50 268L49 267M102.333 267.667L102.667 268.333L102.333 267.667M77.3333 269.667L77.6667 270.333L77.3333 269.667M48.3333 270.667L48.6667 271.333L48.3333 270.667M101.333 270.667L101.667 271.333L101.333 270.667M100 274L101 275L100 274M101 276L102 277L101 276M102 277L103 278L102 277M48.3333 278.667L48.6667 279.333L48.3333 278.667M105.667 278.333L106.333 278.667L105.667 278.333M77 279L77 285L78 285L77 279M108.667 279.333L109.333 279.667L108.667 279.333M111 280L112 281L111 280M21 282L21 285L22 285L21 282M50 283L51 284L50 283M111.333 284.667L111.667 285.333L111.333 284.667M53.6667 285.333L54.3333 285.667L53.6667 285.333M56 286L57 287L56 286M78 286L79 287L78 286M57 287L58 288L57 287M58 288L59 289L58 288M110 288L111 289L110 288M81.6667 289.333L82.3333 289.667L81.6667 289.333M108 289L108 292L109 292L108 289M21 290L22 291L21 290M95 290L95 291L98 291L95 290M55 294L56 294L58 292C55.8603 290.882 55.4732 291.749 55 294M100.667 291.333L101.333 291.667L100.667 291.333M22 292L23 293L22 292M24 293L24 294L27 294L24 293M52 293L53 294L52 293M30.6667 294.333L31.3333 294.667L30.6667 294.333M34 295L35 296L34 295M52.3333 295.667L52.6667 296.333L52.3333 295.667M36 296L37 297L36 296M49 296L50 297L49 296M38 297L38 298L41 298L38 297M43 298L43 299L49 299L43 298z"/>
</svg>
